<?xml version="1.0" encoding="UTF-8" standalone="no"?>
<svg
   xmlns:dc="http://purl.org/dc/elements/1.1/"
   xmlns:cc="http://creativecommons.org/ns#"
   xmlns:rdf="http://www.w3.org/1999/02/22-rdf-syntax-ns#"
   xmlns:svg="http://www.w3.org/2000/svg"
   xmlns="http://www.w3.org/2000/svg"
   xmlns:sodipodi="http://sodipodi.sourceforge.net/DTD/sodipodi-0.dtd"
   xmlns:inkscape="http://www.inkscape.org/namespaces/inkscape"
   style="overflow: hidden; position: relative;"
   height="28"
   version="1.1"
   width="116"
   id="svg2"
   inkscape:version="0.48.4 r9939"
   sodipodi:docname="xem.svg">
  <metadata
     id="metadata16">
    <rdf:RDF>
      <cc:Work
         rdf:about="">
        <dc:format>image/svg+xml</dc:format>
        <dc:type
           rdf:resource="http://purl.org/dc/dcmitype/StillImage" />
      </cc:Work>
    </rdf:RDF>
  </metadata>
  <sodipodi:namedview
     pagecolor="#ffffff"
     bordercolor="#666666"
     borderopacity="1"
     objecttolerance="10"
     gridtolerance="10"
     guidetolerance="10"
     inkscape:pageopacity="0"
     inkscape:pageshadow="2"
     inkscape:window-width="1197"
     inkscape:window-height="682"
     id="namedview14"
     showgrid="false"
     inkscape:zoom="5.9482759"
     inkscape:cx="45.404559"
     inkscape:cy="10.102048"
     inkscape:window-x="233"
     inkscape:window-y="431"
     inkscape:window-maximized="0"
     inkscape:current-layer="svg2" />
  <desc
     style="-webkit-tap-highlight-color: rgba(0, 0, 0, 0);"
     id="desc4">Created with Raphaël 2.0.0</desc>
  <defs
     style="-webkit-tap-highlight-color: rgba(0, 0, 0, 0);"
     id="defs6" />
  <path
     style="-webkit-tap-highlight-color:rgba;opacity:1;fill:#8254eb;fill-opacity:1"
     fill="#ffa500"
     stroke="#000000"
     d="M30.204,12.589C30.117,12.648,29.958000000000002,12.741,29.728,12.871C29.498,13,29.224,13.181000000000001,28.907,13.41H28.864C30.650000000000002,14.332,31.975,15.528,32.84,16.996C33.704,18.465999999999998,34.136,20.368,34.136,22.701999999999998C34.136,23.45,34.013000000000005,24.141,33.769000000000005,24.775999999999996C33.52400000000001,25.408999999999995,33.22200000000001,25.955999999999996,32.86200000000001,26.416999999999994C32.50100000000001,26.877999999999993,32.11200000000001,27.246999999999993,31.695000000000007,27.518999999999995C31.278000000000006,27.793999999999993,30.881000000000007,27.928999999999995,30.50700000000001,27.928999999999995H24.285000000000007C23.85300000000001,27.928999999999995,23.56500000000001,27.908999999999995,23.42000000000001,27.864999999999995C23.27600000000001,27.821999999999996,23.204000000000008,27.757999999999996,23.204000000000008,27.669999999999995L23.463000000000008,24.085999999999995C23.434000000000008,23.048999999999996,23.325000000000006,22.053999999999995,23.139000000000006,21.103999999999996C22.951000000000008,20.153999999999996,22.627000000000006,19.310999999999996,22.167000000000005,18.574999999999996C21.706000000000007,17.841999999999995,21.087000000000003,17.251999999999995,20.310000000000006,16.803999999999995C19.532000000000007,16.356999999999996,18.566000000000006,16.133999999999993,17.414000000000005,16.133999999999993C16.290000000000006,16.133999999999993,15.354000000000005,16.291999999999994,14.606000000000005,16.609999999999992C13.857000000000005,16.926999999999992,13.230000000000006,17.438999999999993,12.727000000000006,18.14399999999999C12.222000000000005,18.84999999999999,11.819000000000006,19.76499999999999,11.517000000000007,20.88799999999999S10.948000000000008,23.36499999999999,10.717000000000006,24.94899999999999C10.659000000000006,25.29499999999999,10.486000000000006,25.647999999999993,10.199000000000005,26.007999999999992C9.911000000000005,26.368999999999993,9.587000000000005,26.691999999999993,9.227000000000006,26.978999999999992C8.866000000000005,27.267999999999994,8.507000000000005,27.49899999999999,8.146000000000006,27.66999999999999C7.786000000000006,27.84599999999999,7.505000000000006,27.929999999999993,7.3040000000000065,27.929999999999993H1.124C0.375,27.929,0,27.772,0,27.454C0,27.108,0.086,26.632,0.259,26.028000000000002C0.432,25.423000000000002,0.626,24.798000000000002,0.842,24.147000000000002C1.058,23.501,1.274,22.911,1.491,22.377000000000002C1.7060000000000002,21.844,1.858,21.477000000000004,1.945,21.275000000000002C2.607,20.007,3.479,18.784000000000002,4.559,17.601000000000003C5.639,16.42,6.885,15.383000000000003,8.297,14.491000000000003H8.383000000000001C6.482000000000001,13.512000000000004,5.135000000000001,12.244000000000003,4.3420000000000005,10.688000000000002S3.154,7.463,3.154,5.677C3.154,5.217,3.175,4.734,3.218,4.2299999999999995C3.261,3.7259999999999995,3.326,3.2289999999999996,3.412,2.7389999999999994C3.441,2.5089999999999995,3.592,2.2359999999999993,3.866,1.9179999999999995C4.14,1.601,4.45,1.305,4.796,1.031C5.141,0.757,5.494,0.52,5.854,0.318C6.213,0.11699999999999999,6.523,0.016000000000000014,6.783,0.016000000000000014H12.962C13.392999999999999,0.016000000000000014,13.681,0.05800000000000002,13.826,0.14500000000000002C13.97,0.231,14.041,0.361,14.041,0.534C14.041,0.679,14.034,0.843,14.02,1.0310000000000001C14.004999999999999,1.219,13.984,1.427,13.956,1.657C13.898,2.003,13.854999999999999,2.385,13.827,2.802C13.798,3.22,13.783,3.674,13.783,4.163C13.783,5.6610000000000005,13.956,6.9,14.302,7.878C14.648,8.857,15.100999999999999,9.643,15.663,10.233C16.225,10.824,16.858,11.235000000000001,17.564,11.464C18.27,11.695,18.969,11.809000000000001,19.66,11.809000000000001C20.179,11.809000000000001,20.682,11.760000000000002,21.173000000000002,11.658000000000001C21.662000000000003,11.558000000000002,22.116000000000003,11.429000000000002,22.534000000000002,11.269000000000002C22.951000000000004,11.112000000000002,23.319000000000003,10.931000000000003,23.636000000000003,10.729000000000003C23.952,10.528000000000002,24.198000000000004,10.327000000000004,24.371000000000002,10.125000000000004C24.745,9.722000000000003,25.069000000000003,9.117000000000004,25.343000000000004,8.311000000000003C25.617000000000004,7.504000000000003,25.841000000000005,6.698000000000004,26.013000000000005,5.891000000000004C26.215000000000007,4.940000000000004,26.387000000000004,3.961000000000004,26.532000000000004,2.9530000000000034C26.877000000000002,2.3200000000000034,27.194000000000003,1.8010000000000035,27.482000000000003,1.3970000000000034C27.770000000000003,0.9940000000000033,28.080000000000002,0.6850000000000034,28.411,0.4690000000000033C28.742,0.25200000000000333,29.109,0.10900000000000332,29.512,0.03600000000000331C29.916,-0.03599999999999669,30.377,-0.07199999999999669,30.895,-0.07199999999999669C31.096,-0.07199999999999669,31.306,-0.07199999999999669,31.521,-0.07199999999999669S31.96,-0.05699999999999669,32.191,-0.02999999999999669H32.147000000000006C32.464000000000006,-0.0009999999999966876,32.803000000000004,0.021000000000003308,33.163000000000004,0.03500000000000331C33.523,0.05000000000000331,33.948,0.05600000000000331,34.437000000000005,0.05600000000000331H36.12200000000001C36.61300000000001,0.05600000000000331,36.922000000000004,0.11500000000000331,37.05100000000001,0.2280000000000033C37.18000000000001,0.3440000000000033,37.24500000000001,0.4300000000000033,37.24500000000001,0.4870000000000033C37.24500000000001,0.8330000000000033,37.15900000000001,1.3080000000000034,36.98600000000001,1.9130000000000034C36.814000000000014,2.5180000000000033,36.61800000000001,3.1380000000000035,36.40300000000001,3.7710000000000035C36.18700000000001,4.405000000000004,35.96400000000001,4.988000000000003,35.734000000000016,5.5210000000000035C35.503000000000014,6.054000000000004,35.34500000000001,6.421000000000004,35.25800000000002,6.623000000000004C34.68100000000002,7.688000000000004,33.97700000000002,8.732000000000003,33.14100000000002,9.755000000000004C32.30500000000002,10.779000000000003,31.34100000000002,11.722000000000005,30.24600000000002,12.585000000000004H30.20300000000002V12.589Z"
     stroke-width="0"
     id="path8" />
  <path
     style="-webkit-tap-highlight-color:rgba;fill:#fc0202;fill-opacity:1"
     fill="#ff0000"
     stroke="#000000"
     d="M69.084,5.134C69.305,5.657,69.504,6.174,69.683,6.682C69.86200000000001,7.192,69.953,7.639,69.953,8.025C69.953,8.768,69.691,9.443,69.168,10.048C68.646,10.654,67.94200000000001,11.218,67.06200000000001,11.741C66.18,12.264,65.156,12.74,63.98600000000001,13.166C62.81600000000001,13.593,61.58300000000001,13.978,60.29000000000001,14.322000000000001C58.996000000000016,14.666,57.689000000000014,14.983,56.36700000000001,15.272C55.046000000000014,15.561,53.77900000000001,15.83,52.56800000000001,16.077C51.439000000000014,16.298000000000002,50.37900000000001,16.511000000000003,49.387000000000015,16.717000000000002C48.39700000000001,16.924000000000003,47.57100000000001,17.165000000000003,46.90900000000001,17.44H47.44700000000001C47.55600000000001,18.679000000000002,47.79100000000001,19.705000000000002,48.14800000000001,20.517000000000003C48.50500000000001,21.330000000000002,48.94000000000001,21.976000000000003,49.45000000000001,22.458000000000002C49.95900000000001,22.939000000000004,50.52300000000001,23.277,51.14200000000001,23.469C51.76200000000001,23.662000000000003,52.38800000000001,23.758000000000003,53.02000000000001,23.758000000000003C53.51600000000001,23.758000000000003,53.99700000000001,23.710000000000004,54.46600000000001,23.613000000000003C54.93300000000001,23.517000000000003,55.37400000000001,23.386000000000003,55.787000000000006,23.220000000000002C56.20100000000001,23.055000000000003,56.56400000000001,22.876,56.88100000000001,22.684C57.19700000000001,22.492,57.43900000000001,22.298000000000002,57.604000000000006,22.105C57.659000000000006,22.051000000000002,57.78300000000001,21.81,57.976000000000006,21.383S58.361000000000004,20.523,58.55400000000001,20.082C58.74700000000001,19.614,58.96800000000001,19.126,59.21500000000001,18.616C59.46300000000001,18.107,59.77300000000001,17.639,60.14400000000001,17.212C60.51600000000001,16.785,60.97000000000001,16.419999999999998,61.50700000000001,16.118C62.04400000000001,15.814999999999998,62.71200000000001,15.621999999999998,63.51000000000001,15.54H65.49100000000001C65.87700000000001,15.54,66.26200000000001,15.561,66.64700000000002,15.601999999999999S67.37200000000001,15.719,67.66000000000003,15.828999999999999C67.94900000000003,15.938999999999998,68.18100000000003,16.090999999999998,68.36100000000002,16.282999999999998C68.54100000000003,16.476,68.63100000000001,16.723,68.63100000000001,17.026999999999997C68.63100000000001,17.496,68.44400000000002,18.066,68.07200000000002,18.74C67.70000000000002,19.415,67.23200000000001,20.102999999999998,66.66900000000001,20.804C66.10500000000002,21.506999999999998,65.498,22.180999999999997,64.85200000000002,22.828C64.20500000000001,23.474,63.62000000000002,24.019,63.09600000000002,24.459C62.353000000000016,25.037,61.50700000000002,25.54,60.557000000000016,25.967C59.60700000000001,26.394,58.58900000000001,26.750999999999998,57.50100000000002,27.04S55.27800000000002,27.551,54.09500000000002,27.701C52.91100000000002,27.852,51.74100000000002,27.928,50.58400000000002,27.928C48.52000000000002,27.928,46.667000000000016,27.749000000000002,45.030000000000015,27.391000000000002C43.39200000000002,27.035,41.994000000000014,26.442,40.83900000000001,25.617C39.682000000000016,24.79,38.795000000000016,23.718,38.17500000000001,22.395C37.55600000000001,21.073999999999998,37.24600000000001,19.448999999999998,37.24600000000001,17.522C37.24600000000001,15.374999999999998,37.62400000000001,13.247999999999998,38.38200000000001,11.140999999999998C39.13800000000001,9.034999999999998,40.30900000000001,7.155999999999999,41.89200000000001,5.503999999999999C43.47500000000001,3.8519999999999985,45.48400000000001,2.5099999999999985,47.92100000000001,1.4769999999999985S53.254000000000005,-0.0720000000000014,56.61300000000001,-0.0720000000000014C57.88000000000001,-0.0720000000000014,59.159000000000006,0.0179999999999986,60.45400000000001,0.19699999999999862C61.748000000000005,0.3759999999999986,62.952000000000005,0.6649999999999987,64.06800000000001,1.0639999999999987C65.183,1.4629999999999987,66.17900000000002,1.9939999999999989,67.061,2.653999999999999C67.941,3.317,68.615,4.143,69.084,5.134ZM57.15,4.804C56.186,4.364,55.153999999999996,4.143000000000001,54.052,4.143000000000001C53.226,4.143000000000001,52.413,4.274000000000001,51.616,4.5360000000000005C50.817,4.798,50.184,5.203,49.716,5.7540000000000004C49.412,6.085000000000001,49.151,6.5600000000000005,48.931000000000004,7.179C48.71000000000001,7.799,48.50300000000001,8.473,48.31100000000001,9.202C48.11800000000001,9.932,47.95900000000001,10.689,47.836000000000006,11.472999999999999C47.711000000000006,12.258,47.60900000000001,12.979999999999999,47.525000000000006,13.640999999999998C47.580000000000005,13.612999999999998,47.635000000000005,13.599999999999998,47.691,13.599999999999998C47.746,13.599999999999998,47.801,13.585999999999999,47.856,13.557999999999998C48.792,13.365999999999998,49.9,13.103999999999997,51.181000000000004,12.773999999999997C52.461000000000006,12.442999999999998,53.69200000000001,12.050999999999997,54.876000000000005,11.596999999999998C56.06,11.141999999999998,57.065000000000005,10.605999999999998,57.891000000000005,9.985999999999997C58.718,9.365999999999998,59.13,8.657999999999998,59.13,7.858999999999997C59.13,7.1439999999999975,58.917,6.509999999999997,58.49,5.959999999999997C58.064,5.409,57.617,5.025,57.15,4.804Z"
     stroke-width="0"
     id="path10" />
  <path
     style="-webkit-tap-highlight-color:rgba;fill:#fca401;fill-opacity:1"
     fill="#b6d415"
     stroke="#000000"
     d="M87.927,-0.071C89.36500000000001,-0.071,90.768,0.071,92.13600000000001,0.351C93.504,0.6339999999999999,94.638,1.17,95.54,1.959H95.49900000000001C95.555,2.016,95.60300000000001,2.0580000000000003,95.64600000000002,2.085C95.68800000000002,2.114,95.72300000000001,2.142,95.75200000000001,2.169C95.80700000000002,2.113,95.906,2.057,96.04800000000002,2C96.18900000000002,1.944,96.34300000000002,1.859,96.51300000000002,1.746C96.79400000000003,1.578,97.14800000000002,1.387,97.57000000000002,1.1760000000000002C97.99400000000003,0.9640000000000002,98.50800000000002,0.7670000000000001,99.11400000000002,0.5830000000000002C99.72000000000001,0.4000000000000002,100.44600000000001,0.24500000000000016,101.29300000000002,0.11800000000000016C102.13800000000002,-0.008999999999999841,103.13900000000002,-0.07199999999999984,104.29600000000002,-0.07199999999999984C106.27000000000002,-0.07199999999999984,107.94100000000002,0.15400000000000016,109.30800000000002,0.6050000000000002C110.67500000000003,1.0560000000000003,111.78300000000002,1.6910000000000003,112.62900000000002,2.508C113.47400000000002,3.326,114.08700000000002,4.334,114.46900000000002,5.532C114.84900000000002,6.73,115.03900000000002,8.063,115.03900000000002,9.529C115.03900000000002,10.629,114.95500000000001,11.812999999999999,114.78500000000001,13.082L113.09400000000001,25.264000000000003C113.066,25.490000000000002,112.92500000000001,25.749000000000002,112.67,26.046000000000003C112.416,26.342000000000002,112.112,26.632,111.761,26.912000000000003C111.408,27.194000000000003,111.056,27.434,110.704,27.631000000000004C110.351,27.829000000000004,110.04799999999999,27.928000000000004,109.794,27.928000000000004H103.704C103.30799999999999,27.928000000000004,103.04199999999999,27.913000000000004,102.89899999999999,27.885000000000005C102.75799999999998,27.858000000000004,102.68799999999999,27.815000000000005,102.68799999999999,27.759000000000004C102.68799999999999,27.279000000000003,102.716,26.687000000000005,102.77299999999998,25.983000000000004C102.82899999999998,25.278000000000006,102.91399999999999,24.523000000000003,103.02699999999999,23.720000000000006C103.13899999999998,22.915000000000006,103.25199999999998,22.084000000000007,103.36599999999999,21.223000000000006C103.47799999999998,20.364000000000004,103.60499999999999,19.511000000000006,103.74699999999999,18.664000000000005C103.85899999999998,17.875000000000004,103.97899999999998,17.078000000000007,104.10599999999998,16.274000000000004S104.34499999999998,14.703000000000005,104.44399999999997,13.969000000000005C104.54399999999997,13.236000000000004,104.62099999999998,12.559000000000005,104.67699999999998,11.939000000000005C104.73299999999998,11.319000000000006,104.76099999999998,10.797000000000006,104.76099999999998,10.374000000000006C104.76099999999998,9.134000000000006,104.66899999999998,8.112000000000005,104.48699999999998,7.308000000000006C104.30299999999998,6.504000000000006,104.06999999999998,5.870000000000006,103.78899999999999,5.4050000000000065C103.50699999999999,4.940000000000007,103.19599999999998,4.616000000000007,102.85799999999999,4.432000000000007C102.52,4.249000000000007,102.19599999999998,4.157000000000006,101.88499999999999,4.157000000000006S101.28599999999999,4.249000000000006,101.01799999999999,4.432000000000007C100.74999999999999,4.616000000000007,100.57399999999998,4.791000000000007,100.48999999999998,4.960000000000006C100.23599999999998,5.383000000000006,100.00399999999998,5.912000000000006,99.79199999999999,6.547000000000006C99.58099999999999,7.181000000000006,99.39099999999999,7.872000000000006,99.222,8.619000000000007C99.05199999999999,9.367000000000006,98.89699999999999,10.128000000000007,98.756,10.904000000000007C98.614,11.679000000000007,98.501,12.405000000000006,98.417,13.082000000000008C98.135,15.027000000000008,97.85300000000001,17.05700000000001,97.57000000000001,19.172000000000008C97.289,21.287000000000006,97.00800000000001,23.31800000000001,96.72500000000001,25.26300000000001C96.69600000000001,25.49000000000001,96.555,25.74900000000001,96.301,26.04500000000001C96.048,26.341000000000008,95.744,26.631000000000007,95.392,26.91200000000001S94.687,27.434000000000008,94.335,27.63100000000001C93.981,27.82900000000001,93.67899999999999,27.92700000000001,93.42599999999999,27.92700000000001H87.335C86.94,27.92700000000001,86.67299999999999,27.90600000000001,86.53099999999999,27.86400000000001C86.389,27.82200000000001,86.32,27.77300000000001,86.32,27.71600000000001C86.32,27.237000000000013,86.347,26.653000000000013,86.404,25.96200000000001C86.461,25.27100000000001,86.54599999999999,24.53100000000001,86.65899999999999,23.74100000000001C86.77,22.95200000000001,86.88399999999999,22.12700000000001,86.996,21.26600000000001C87.109,20.40700000000001,87.23599999999999,19.55400000000001,87.378,18.70800000000001C87.49,17.919000000000008,87.61,17.12200000000001,87.737,16.31800000000001C87.86399999999999,15.514000000000008,87.976,14.747000000000009,88.07499999999999,14.013000000000009C88.17399999999999,13.280000000000008,88.252,12.596000000000009,88.30799999999999,11.962000000000009C88.36399999999999,11.327000000000009,88.392,10.799000000000008,88.392,10.375000000000009C88.392,9.135000000000009,88.3,8.113000000000008,88.118,7.309000000000009C87.934,6.505000000000009,87.701,5.871000000000009,87.42,5.4060000000000095C87.138,4.94100000000001,86.827,4.61700000000001,86.49,4.43300000000001C86.151,4.25000000000001,85.826,4.158000000000009,85.51599999999999,4.158000000000009C85.23499999999999,4.158000000000009,84.95899999999999,4.250000000000009,84.69099999999999,4.43300000000001C84.42299999999999,4.61700000000001,84.23299999999999,4.79200000000001,84.11999999999999,4.961000000000009C83.86699999999999,5.413000000000009,83.63399999999999,5.955000000000009,83.42299999999999,6.590000000000009S83.01399999999998,7.909000000000009,82.83099999999999,8.641000000000009C82.64699999999999,9.37400000000001,82.49099999999999,10.12100000000001,82.365,10.88300000000001C82.238,11.644000000000009,82.133,12.37800000000001,82.048,13.083000000000009L80.399,25.26400000000001C80.37,25.49100000000001,80.222,25.75000000000001,79.955,26.04600000000001C79.68599999999999,26.34200000000001,79.377,26.63200000000001,79.024,26.91300000000001C78.67,27.19400000000001,78.311,27.43500000000001,77.946,27.632000000000012C77.579,27.830000000000013,77.283,27.92800000000001,77.057,27.92800000000001H71.01C70.587,27.92800000000001,70.30600000000001,27.900000000000013,70.164,27.844000000000012C70.023,27.787000000000013,69.952,27.71600000000001,69.952,27.632000000000012L73.293,3.27C73.32100000000001,3.044,73.46300000000001,2.777,73.71700000000001,2.466C73.97100000000002,2.156,74.26700000000001,1.8670000000000002,74.60500000000002,1.5990000000000002C74.94400000000002,1.3310000000000002,75.29500000000002,1.0990000000000002,75.66200000000002,0.9010000000000002S76.34000000000002,0.6050000000000002,76.59300000000002,0.6050000000000002H80.18900000000002C80.61200000000002,0.6050000000000002,80.92900000000002,0.6200000000000002,81.14100000000002,0.6470000000000002C81.35200000000002,0.6760000000000003,81.54200000000002,0.7040000000000003,81.71100000000001,0.7320000000000002C81.88000000000001,0.7890000000000003,82.00700000000002,0.8160000000000002,82.09200000000001,0.8160000000000002C82.06400000000001,0.8160000000000002,82.043,0.8240000000000002,82.02900000000001,0.8370000000000002C82.01400000000001,0.8520000000000002,81.99400000000001,0.8580000000000002,81.96700000000001,0.8580000000000002C82.02300000000001,0.8580000000000002,82.06500000000001,0.8440000000000002,82.09300000000002,0.8160000000000002C84.035,0.225,85.981,-0.071,87.927,-0.071Z"
     stroke-width="0"
     id="path12" />
</svg>
